<svg width="51" height="56" viewBox="0 0 51 56" fill="none" xmlns="http://www.w3.org/2000/svg">
<path d="M11.488 42.8557V42.7057H11.338H8.27791H8.12791V42.8557V44.8614V45.0114H8.27791H11.338H11.488V44.8614V42.8557ZM8.12791 48.8966V49.0466H8.27791H11.338H11.488V48.8966V46.8908V46.7408H11.338H8.27791H8.12791V46.8908V48.8966ZM7.26316 40.9762H12.3528C12.8303 40.9762 13.2175 41.3634 13.2175 41.8409V49.9113C13.2175 50.3889 12.8303 50.7761 12.3528 50.7761H7.26316C6.78561 50.7761 6.39841 50.3889 6.39841 49.9113V41.8409C6.39841 41.3634 6.78561 40.9762 7.26316 40.9762Z" fill="#646D84" stroke="white" stroke-width="0.3"/>
<path d="M11.488 30.7211V30.5711H11.338H8.27791H8.12791V30.7211V32.7269V32.8769H8.27791H11.338H11.488V32.7269V30.7211ZM8.27791 34.6064H8.12791V34.7564V36.7621V36.7622V36.9122H8.27791H11.338H11.488V36.7622V34.7564V34.6064H11.338H8.27791ZM7.26316 28.8417H12.3528C12.8303 28.8417 13.2175 29.2288 13.2175 29.7064V37.7768C13.2175 38.2544 12.8303 38.6416 12.3528 38.6416H7.26316C6.78561 38.6416 6.39841 38.2544 6.39841 37.7768V29.7064C6.39841 29.2288 6.78561 28.8417 7.26316 28.8417Z" fill="#646D84" stroke="white" stroke-width="0.3"/>
<path d="M20.6049 42.8557V42.7057H20.4549H17.3949H17.2449V42.8557V44.8614V45.0114H17.3949H20.4549H20.6049V44.8614V42.8557ZM17.2449 48.8966V49.0466H17.3949H20.4549H20.6049V48.8966V46.8908V46.7408H20.4549H17.3949H17.2449V46.8908V48.8966ZM16.3801 40.9762H21.4697C21.9472 40.9762 22.3344 41.3634 22.3344 41.8409V49.9113C22.3344 50.3889 21.9472 50.7761 21.4697 50.7761H16.3801C15.9026 50.7761 15.5154 50.3889 15.5154 49.9113V41.8409C15.5154 41.3634 15.9026 40.9762 16.3801 40.9762Z" fill="#646D84" stroke="white" stroke-width="0.3"/>
<path d="M20.6049 30.7211V30.5711H20.4549H17.3949H17.2449V30.7211V32.7269V32.8769H17.3949H20.4549H20.6049V32.7269V30.7211ZM17.3949 34.6064H17.2449V34.7564V36.7621V36.7622V36.9122H17.3949H20.4549H20.6049V36.7622V34.7564V34.6064H20.4549H17.3949ZM16.3801 28.8417H21.4697C21.9472 28.8417 22.3344 29.2288 22.3344 29.7064V37.7768C22.3344 38.2544 21.9472 38.6416 21.4697 38.6416H16.3801C15.9026 38.6416 15.5154 38.2544 15.5154 37.7768V29.7064C15.5154 29.2288 15.9026 28.8417 16.3801 28.8417Z" fill="#646D84" stroke="white" stroke-width="0.3"/>
<path d="M37.8794 11.4367V11.2867H37.7294H34.6693H34.5193V11.4367V13.4425V13.5925H34.6693H37.7294H37.8794V13.4425V11.4367ZM34.5193 17.4776V17.6276H34.6693H37.7294H37.8794V17.4776V15.4719V15.3219H37.7294H34.6693H34.5193V15.4719V17.4776ZM33.6545 9.55723H38.7441C39.2217 9.55723 39.6089 9.94442 39.6089 10.422V18.4924C39.6089 18.9699 39.2217 19.3571 38.7441 19.3571H33.6545C33.177 19.3571 32.7898 18.9699 32.7898 18.4924V10.422C32.7898 9.94442 33.177 9.55723 33.6545 9.55723Z" fill="#646D84" stroke="white" stroke-width="0.3"/>
<path d="M48.7337 53.9704V54.1204H48.8837H49.9407C50.4183 54.1204 50.8053 54.5073 50.8053 54.9848C50.8053 55.4623 50.4181 55.8495 49.9405 55.8495H1.14805C0.670497 55.8495 0.283301 55.4623 0.283301 54.9848C0.283301 54.5072 0.670497 54.12 1.14805 54.12H2.20504H2.35504V53.97V26.3726V26.0781L2.11684 26.2512L1.74113 26.5243L1.74111 26.5244C1.47818 26.7155 1.13012 26.7429 0.840269 26.5953C0.550494 26.4478 0.368032 26.1501 0.368032 25.8249V21.6176C0.368032 21.3409 0.500552 21.0808 0.724416 20.9181L0.636557 20.7972L0.724421 20.9181L13.3844 11.7172C13.6878 11.4966 14.0987 11.4969 14.4018 11.7176L14.4018 11.7176L17.1056 13.686L17.1938 13.7502L17.2821 13.686L25.086 8.01436C25.086 8.01436 25.086 8.01435 25.086 8.01435C25.3935 7.79092 25.8111 7.7944 26.1148 8.02332L26.1148 8.02333L28.5407 9.8514L28.781 10.0325V9.73161V7.57501V7.41879L28.6249 7.42514C28.3449 7.43651 28.0656 7.31265 27.8892 7.06978L27.7678 7.15795L27.8891 7.06978C27.6084 6.68346 27.694 6.14265 28.0804 5.86181L35.7122 0.31521C36.0155 0.0948144 36.4262 0.0949028 36.7295 0.31564C36.7295 0.315645 36.7296 0.315651 36.7296 0.315656L44.3613 5.87163C44.7475 6.15281 44.8326 6.69371 44.5515 7.07965C44.3821 7.31212 44.1191 7.43554 43.8514 7.43554C43.8533 7.43554 43.8534 7.43571 43.8466 7.43498L43.8448 7.4348C43.8392 7.43418 43.8275 7.43291 43.8156 7.43247L43.6601 7.42676V7.58237V20.7201V20.7964L43.7218 20.8413L49.4114 24.9835L49.4996 24.8623L49.4114 24.9835C49.7975 25.2646 49.8826 25.8054 49.6015 26.1915C49.4332 26.4226 49.1722 26.546 48.9062 26.5474L48.9012 26.5469C48.8976 26.5466 48.8924 26.5462 48.8863 26.5461L48.7332 26.5429V26.696C48.7332 26.7018 48.7335 26.707 48.7337 26.71V53.9704ZM39.7545 49.8605L39.6273 49.8801V50.0087V53.9704V54.1204H39.7773H42.774H42.924V53.9704V42.8558V42.7058H42.774H39.7773H39.6273V42.8558V48.0065V48.1351L39.7544 48.1547C39.9362 48.1829 40.1068 48.2673 40.236 48.3964C40.3966 48.5572 40.4889 48.7803 40.4889 49.0083C40.4889 49.2349 40.3967 49.4581 40.236 49.6189C40.1068 49.7481 39.9363 49.8324 39.7545 49.8605ZM37.7478 54.1204H37.8978V53.9704V41.841C37.8978 41.3635 38.285 40.9763 38.7626 40.9763H43.7888C44.2663 40.9763 44.6535 41.3635 44.6535 41.8411V53.9706V54.1206H44.8035H46.8542H47.0042V53.9706V26.7097C47.0043 26.7071 47.0046 26.7025 47.0046 26.6976V26.5476H46.8546H27.0927H27.0497L27.0131 26.5704C27.0059 26.575 26.9994 26.5791 26.9935 26.5828C26.974 26.5951 26.9605 26.6037 26.9452 26.6116C26.8232 26.6736 26.6906 26.7045 26.5584 26.7052L26.4092 26.7061V26.8552V53.9704V54.1204H26.5592H37.7478ZM30.6605 7.22498H30.5105V7.37498V21.5392V21.6892H30.6605H41.7804H41.9305V21.5392V7.37498V7.22498H41.7804H30.6605ZM36.3083 2.14827L36.2201 2.08404L36.1318 2.14819L31.8994 5.22415L31.5261 5.49549H31.9876H40.4449H40.9058L40.5332 5.22422L36.3083 2.14827ZM25.6737 9.85662L25.585 9.78981L25.4952 9.85508L18.8304 14.699L18.6636 14.8202L18.8303 14.9416L27.0619 20.9344C27.2853 21.0972 27.4176 21.3571 27.4176 21.6336V24.6679V24.8179H27.5676H45.784H46.2449L45.8723 24.5467L43.7318 22.9883L43.6045 22.8956L43.5181 23.0272C43.3633 23.2632 43.0974 23.4186 42.7951 23.4186H29.6456C29.168 23.4186 28.7808 23.0314 28.7808 22.5538V12.2728V12.198L28.7211 12.153L25.6737 9.85662ZM2.1596 22.0134L2.09778 22.0583V22.1347V23.8332V24.1276L2.33597 23.9545L13.3848 15.9247L13.2966 15.8033L13.3848 15.9247C13.5364 15.8145 13.7148 15.7594 13.8932 15.7594C14.0718 15.7594 14.2504 15.8145 14.402 15.925L14.402 15.925L25.45 23.9681L25.6883 24.1416V23.8469V22.15V22.0736L25.6266 22.0287L13.9808 13.5504L13.8926 13.4861L13.8043 13.5503L2.1596 22.0134ZM4.1466 24.7766L4.08478 24.8215V24.8979V53.9703V54.1203H4.23478H24.5297H24.6797V53.9703V25.6231V25.5467L24.618 25.5018L13.9808 17.7576L13.8926 17.6934L13.8043 17.7576L4.1466 24.7766Z" fill="#646D84" stroke="white" stroke-width="0.3"/>
<path d="M33.8706 30.7211V30.5711H33.7206H30.6605H30.5105V30.7211V32.7269V32.8769H30.6605H33.7206H33.8706V32.7269V30.7211ZM30.6605 34.6064H30.5105V34.7564V36.7621V36.7622V36.9122H30.6605H33.7206H33.8706V36.7622V34.7564V34.6064H33.7206H30.6605ZM29.6457 28.8417H34.7353C35.2129 28.8417 35.6001 29.2288 35.6001 29.7064V37.7768C35.6001 38.2544 35.2129 38.6416 34.7353 38.6416H29.6457C29.1682 38.6416 28.781 38.2544 28.781 37.7768V29.7064C28.781 29.2288 29.1682 28.8417 29.6457 28.8417Z" fill="#646D84" stroke="white" stroke-width="0.3"/>
<path d="M33.8706 42.8557V42.7057H33.7206H30.6605H30.5105V42.8557V44.8614V45.0114H30.6605H33.7206H33.8706V44.8614V42.8557ZM30.5105 48.8966V49.0466H30.6605H33.7206H33.8706V48.8966V46.8908V46.7408H33.7206H30.6605H30.5105V46.8908V48.8966ZM29.6457 40.9762H34.7353C35.2129 40.9762 35.6001 41.3634 35.6001 41.8409V49.9113C35.6001 50.3889 35.2129 50.7761 34.7353 50.7761H29.6457C29.1682 50.7761 28.781 50.3889 28.781 49.9113V41.8409C28.781 41.3634 29.1682 40.9762 29.6457 40.9762Z" fill="#646D84" stroke="white" stroke-width="0.3"/>
<path d="M42.9874 30.7211V30.5711H42.8374H39.7773H39.6273V30.7211V32.7269V32.8769H39.7773H42.8374H42.9874V32.7269V30.7211ZM39.7773 34.6064H39.6273V34.7564V36.7621V36.7622V36.9122H39.7773H42.8374H42.9874V36.7622V34.7564V34.6064H42.8374H39.7773ZM43.8521 28.8417C44.3297 28.8417 44.7169 29.2288 44.7169 29.7064V37.7768C44.7169 38.2544 44.3297 38.6416 43.8521 38.6416H38.7626C38.285 38.6416 37.8978 38.2544 37.8978 37.7768V29.7064C37.8978 29.2288 38.285 28.8417 38.7626 28.8417H43.8521Z" fill="#646D84" stroke="white" stroke-width="0.3"/>
</svg>
