<svg width="38" height="36" viewBox="0 0 38 36" fill="none" xmlns="http://www.w3.org/2000/svg">
<path d="M29.8221 11.8044V1.49044H25.7264V7.62831" fill="#ECEDF1"/>
<path d="M36.5566 19.5142C36.7832 19.7452 37.15 19.745 37.3764 19.5232C37.6051 19.299 37.6091 18.9322 37.3854 18.7035C35.8094 17.0936 31.5459 12.7387 30.4017 11.57V1.4905C30.4017 1.17008 30.1425 0.910788 29.822 0.910788H25.7261C25.4057 0.910788 25.1464 1.17008 25.1464 1.4905V6.20188L19.4144 0.346933C19.1959 0.123878 18.8041 0.123878 18.5856 0.346933L0.614594 18.7035C0.390976 18.9322 0.394936 19.299 0.623655 19.5232C0.852373 19.7474 1.21921 19.7434 1.4434 19.5142L5.12943 15.7491V34.6591H1.21752C0.897098 34.6591 0.637811 34.9184 0.637811 35.2388C0.637811 35.5592 0.897098 35.8185 1.21752 35.8185C0.80631 35.8195 8.25227 35.8221 36.7831 35.8185C37.1035 35.8185 37.3628 35.5592 37.3628 35.2388C37.3628 34.9184 37.1035 34.6591 36.7831 34.6591H32.8712V15.7497L36.5566 19.5142ZM26.3058 2.07021H29.2423V10.3857L26.3058 7.38618V2.07021ZM31.7117 34.6591H6.28885V14.5648L19 1.58108C48.3073 31.5223 2.39313 -15.3793 31.7117 14.5654V34.6591Z" fill="#646D84"/>
<path d="M18.1753 14.9592V20.899C18.1753 21.628 17.5843 22.219 16.8553 22.219H10.9155C10.1865 22.219 9.59552 21.628 9.59552 20.899V14.9592C9.59552 14.2302 10.1865 13.6393 10.9155 13.6393H16.8553C17.5843 13.6393 18.1753 14.2302 18.1753 14.9592Z" fill="#D1193F"/>
<path d="M28.4049 14.9592V20.899C28.4049 21.628 27.814 22.219 27.085 22.219H21.1452C20.4162 22.219 19.8252 21.628 19.8252 20.899V14.9592C19.8252 14.2302 20.4162 13.6393 21.1452 13.6393H27.085C27.814 13.6393 28.4049 14.2302 28.4049 14.9592Z" fill="#646D84"/>
<path d="M18.1753 25.3494V31.2893C18.1753 32.0182 17.5843 32.6092 16.8553 32.6092H10.9155C10.1865 32.6092 9.59552 32.0182 9.59552 31.2893V25.3494C9.59552 24.6204 10.1865 24.0295 10.9155 24.0295H16.8553C17.5843 24.0295 18.1753 24.6204 18.1753 25.3494Z" fill="#646D84"/>
<path d="M28.4049 25.3494V31.2893C28.4049 32.0182 27.814 32.6092 27.085 32.6092H21.1452C20.4162 32.6092 19.8252 32.0182 19.8252 31.2893V25.3494C19.8252 24.6204 20.4162 24.0295 21.1452 24.0295H27.085C27.814 24.0295 28.4049 24.6204 28.4049 25.3494Z" fill="#D1193F"/>
<path d="M16.1898 17.3493H14.4654V15.6249C14.4654 15.3045 14.2061 15.0452 13.8857 15.0452C13.5653 15.0452 13.306 15.3045 13.306 15.6249V17.3493H11.581C11.2606 17.3493 11.0013 17.6086 11.0013 17.929C11.0013 18.2494 11.2606 18.5087 11.581 18.5087H13.306V20.2331C13.306 20.5536 13.5653 20.8128 13.8857 20.8128C14.2061 20.8128 14.4654 20.5536 14.4654 20.2331V18.5087H16.1898C16.5102 18.5087 16.7695 18.2494 16.7695 17.929C16.7695 17.6086 16.5102 17.3493 16.1898 17.3493Z" fill="white"/>
<path d="M21.8109 27.5939H26.4191C26.7395 27.5939 26.9988 27.3346 26.9988 27.0142C26.9988 26.6937 26.7395 26.4345 26.4191 26.4345H21.8109C21.4904 26.4345 21.2311 26.6937 21.2311 27.0142C21.2311 27.3346 21.4904 27.5939 21.8109 27.5939Z" fill="white"/>
<path d="M26.4191 29.0448H21.8109C21.4904 29.0448 21.2311 29.3041 21.2311 29.6246C21.2311 29.945 21.4904 30.2043 21.8109 30.2043H26.4191C26.7395 30.2043 26.9988 29.945 26.9988 29.6246C26.9988 29.3041 26.7395 29.0448 26.4191 29.0448Z" fill="white"/>
<path d="M14.2938 26.8087C14.5224 26.5801 14.5285 26.2258 14.2938 25.9912C14.085 25.7766 13.6909 25.7766 13.4764 25.9912C13.2473 26.2203 13.2431 26.5742 13.4764 26.8087C13.6957 27.028 14.0655 27.0382 14.2938 26.8087Z" fill="white"/>
<path d="M14.2938 29.8289C14.1328 29.6286 13.7215 29.5849 13.4764 29.8289C13.2463 30.059 13.2429 30.4118 13.4764 30.6464C13.7066 30.8755 14.0596 30.8806 14.2938 30.6464C14.5359 30.4043 14.5152 30.0503 14.2938 29.8289Z" fill="white"/>
<path d="M16.1898 27.7394H11.581C11.2606 27.7394 11.0013 27.9986 11.0013 28.3191C11.0013 28.6395 11.2606 28.8988 11.581 28.8988H16.1898C16.5102 28.8988 16.7695 28.6395 16.7695 28.3191C16.7695 27.9986 16.5102 27.7394 16.1898 27.7394Z" fill="white"/>
<path d="M22.0763 19.9682C22.3028 20.1946 22.6696 20.1946 22.8961 19.9682L24.1152 18.7488L25.3344 19.9682C25.5608 20.1946 25.9277 20.1946 26.1541 19.9682C26.3806 19.7417 26.3806 19.3749 26.1541 19.1484L24.9349 17.929L26.1541 16.7096C26.3806 16.4831 26.3806 16.1163 26.1541 15.8898C25.9277 15.6634 25.5608 15.6634 25.3344 15.8898L24.1152 17.1092L22.8961 15.8898C22.6696 15.6634 22.3028 15.6634 22.0763 15.8898C21.8499 16.1163 21.8499 16.4831 22.0763 16.7096L23.2955 17.929L22.0763 19.1484C21.8499 19.3749 21.8499 19.7417 22.0763 19.9682Z" fill="white"/>
</svg>
