<svg width="56" height="49" viewBox="0 0 56 49" fill="none" xmlns="http://www.w3.org/2000/svg">
<path d="M7.93552 41.0345V41.1845H8.08552H13.1025H13.2525V41.0345V38.0414V37.8914H13.1025H8.08552H7.93552V38.0414V41.0345ZM13.2525 33.0479V32.8979H13.1025H8.08552H7.93552V33.0479V36.041V36.191H8.08552H13.1025H13.2525V36.041V33.0479ZM14.1028 42.8851H7.08524C6.61568 42.8851 6.23496 42.5044 6.23496 42.0348V32.0476C6.23496 31.5781 6.61568 31.1974 7.08524 31.1974H14.1028C14.5724 31.1974 14.9531 31.5781 14.9531 32.0476V42.0348C14.9531 42.5044 14.5724 42.8851 14.1028 42.8851Z" fill="#646D84" stroke="white" stroke-width="0.3"/>
<path d="M7.93552 26.0199V26.1699H8.08552H13.1025H13.2525V26.0199V23.0268V22.8768H13.1025H8.08552H7.93552V23.0268V26.0199ZM13.2525 18.0333V17.8833H13.1025H8.08552H7.93552V18.0333V21.0264V21.1764H8.08552H13.1025H13.2525V21.0264V18.0333ZM14.1028 27.8704H7.08524C6.61568 27.8704 6.23496 27.4897 6.23496 27.0202V17.033C6.23496 16.5634 6.61568 16.1827 7.08524 16.1827H14.1028C14.5724 16.1827 14.9531 16.5634 14.9531 17.033V27.0202C14.9531 27.4897 14.5724 27.8704 14.1028 27.8704Z" fill="#646D84" stroke="white" stroke-width="0.3"/>
<path d="M18.9229 26.0199V26.1699H19.0729H24.0743H24.2243V26.0199V23.0268V22.8768H24.0743H19.0729H18.9229V23.0268V26.0199ZM24.2243 18.0333V17.8833H24.0743H19.0729H18.9229V18.0333V21.0264V21.1764H19.0729H24.0743H24.2243V21.0264V18.0333ZM25.0746 27.8704H18.0727C17.6031 27.8704 17.2224 27.4897 17.2224 27.0202V17.033C17.2224 16.5634 17.6031 16.1827 18.0727 16.1827H25.0746C25.5442 16.1827 25.9249 16.5634 25.9249 17.033V27.0202C25.9249 27.4897 25.5442 27.8704 25.0746 27.8704Z" fill="#646D84" stroke="white" stroke-width="0.3"/>
<path d="M53.8338 47.0674V47.2174H53.9838H54.9997C55.4693 47.2174 55.85 47.5981 55.85 48.0677C55.85 48.5373 55.4693 48.918 54.9997 48.918H1.00028C0.530718 48.918 0.15 48.5373 0.15 48.0677C0.15 47.5981 0.530718 47.2174 1.00028 47.2174H2.00568H2.15568V47.0674V17.5309V17.2199L1.9123 17.4135L1.5557 17.6972L1.55566 17.6973C1.30029 17.9006 0.950819 17.9396 0.656969 17.7978L0.65695 17.7978C0.362962 17.656 0.176007 17.3584 0.176007 17.0319V13.0139C0.176007 12.7548 0.294182 12.5099 0.496906 12.3486L15.5948 0.334971L15.5015 0.217651L15.5949 0.334968C15.906 0.0873355 16.3474 0.0883736 16.6576 0.337931C16.6576 0.337941 16.6576 0.33795 16.6576 0.337961L22.9487 5.40347L23.1928 5.59999V5.28663V3.06551C23.1928 2.59595 23.5735 2.21524 24.0431 2.21524H27.9609C28.4305 2.21524 28.8112 2.59595 28.8112 3.06551V10.0518V10.1236L28.8671 10.1687L31.5783 12.3516C31.7787 12.5131 31.8953 12.7566 31.8953 13.0139V17.0319C31.8953 17.3593 31.7074 17.6576 31.4122 17.7989L31.4121 17.7989C31.2953 17.8548 31.1699 17.8822 31.0452 17.8822C30.8546 17.8822 30.6658 17.8182 30.5117 17.6941L30.1388 17.394L29.8948 17.1974V17.5108V28.0934V28.2434H30.0448H52.9835C53.4531 28.2434 53.8338 28.6241 53.8338 29.0937V47.0674ZM34.4447 38.9568H34.2947V39.1068V42.066V42.216H34.4447H48.0603H48.2103V42.066V39.1068V38.9568H48.0603H34.4447ZM48.0603 37.2563H48.2103V37.1063V34.095V33.945H48.0603H34.4447H34.2947V34.095V37.1063V37.2563H34.4447H48.0603ZM34.4447 43.9166H34.2947V44.0666V46.8799V47.0299H34.4447H48.0603H48.2103V46.8799V44.0666V43.9166H48.0603H34.4447ZM52.1333 30.0939V29.9439H51.9833H30.0448H29.8948V30.0939V46.8799V47.0299H30.0448H32.4442H32.5942V46.8799V33.0948C32.5942 32.6252 32.9749 32.2445 33.4445 32.2445H49.0606C49.5301 32.2445 49.9108 32.6252 49.9108 33.0948V46.8799V47.0299H50.0608H51.9833H52.1333V46.8799V30.0939ZM25.0434 3.91579H24.8934V4.06579V6.89733V6.96914L24.9493 7.01417L26.8666 8.55785L27.1106 8.75436V8.44102V4.06579V3.91579H26.9606H25.0434ZM1.93317 13.3791L1.87657 13.4241V13.4964V14.9577V15.2688L2.11996 15.0751L15.5948 4.35272L15.5014 4.23534L15.5949 4.35271C15.906 4.1051 16.3474 4.10622 16.6576 4.3558C16.6576 4.35581 16.6576 4.35582 16.6576 4.35583L29.9507 15.0593L30.1948 15.2558V14.9425V13.4929V13.4211L30.1388 13.3761L16.2147 2.16471L16.1212 2.08941L16.0272 2.16417L1.93317 13.3791ZM3.89909 15.8327L3.8306 15.8872L3.84435 15.9737C3.85177 16.0203 3.85624 16.0647 3.85624 16.1089V47.0674V47.2174H4.00624H17.0724H17.2224V47.0674V32.0476C17.2224 31.578 17.6031 31.1973 18.0727 31.1973H25.0746C25.5442 31.1973 25.9249 31.578 25.9249 32.0476V47.0674V47.2174H26.0749H28.0442H28.1942V47.0674V29.0937V16.1089C28.1942 16.0531 28.2 15.9981 28.2105 15.9441L28.2279 15.8553L28.1574 15.7985L16.2147 6.18258L16.1212 6.10728L16.0272 6.18204L3.89909 15.8327ZM19.0681 40.9555L18.9229 40.9601V41.1054V47.0674V47.2174H19.0729H24.0743H24.2243V47.0674V33.0479V32.8979H24.0743H19.0729H18.9229V33.0479V39.1081V39.2532L19.068 39.258C19.2829 39.265 19.4913 39.3547 19.6429 39.5063L19.6433 39.5067C19.8008 39.6632 19.8916 39.8836 19.8916 40.1067C19.8916 40.3309 19.8009 40.5503 19.6429 40.7084C19.4916 40.8597 19.2834 40.9485 19.0681 40.9555Z" fill="#646D84" stroke="white" stroke-width="0.3"/>
</svg>
