<svg width="30" height="30" viewBox="0 0 30 30" fill="none" xmlns="http://www.w3.org/2000/svg">
<path d="M6.42667 29.2666C3.30667 29.2666 0.666674 26.6266 0.666674 23.5066V15.2933C0.600008 11.3999 2.04001 7.73328 4.73334 4.98661C7.42667 2.25328 11.04 0.733276 14.9333 0.733276C22.88 0.733276 29.3333 7.19994 29.3333 15.1333V23.3466C29.3333 26.5199 26.7467 29.1066 23.5733 29.1066C20.4533 29.1066 17.8133 26.4666 17.8133 23.3466V19.5999C17.8133 17.6666 19.3333 16.1466 21.2667 16.1466C23.2 16.1466 24.72 17.6666 24.72 19.5999V23.6399C24.72 24.1866 24.2667 24.6399 23.72 24.6399C23.1733 24.6399 22.72 24.1866 22.72 23.6399V19.5999C22.72 18.6933 21.9867 18.1466 21.2667 18.1466C20.36 18.1466 19.8133 18.8799 19.8133 19.5999V23.3466C19.8133 25.3866 21.5333 27.1066 23.5733 27.1066C25.6133 27.1066 27.3333 25.3866 27.3333 23.3466V15.1333C27.3333 8.29328 21.7733 2.73328 14.9333 2.73328C11.5867 2.73328 8.48001 4.02661 6.16001 6.38661C3.84001 8.74661 2.60001 11.9066 2.66667 15.2666V23.5066C2.66667 25.5466 4.38667 27.2666 6.42667 27.2666C8.46667 27.2666 10.1867 25.5466 10.1867 23.5066V19.7599C10.1867 18.8533 9.45334 18.3066 8.73334 18.3066C7.82667 18.3066 7.28001 19.0399 7.28001 19.7599V23.6533C7.28001 24.1999 6.82667 24.6533 6.28001 24.6533C5.73334 24.6533 5.28001 24.1999 5.28001 23.6533V19.7599C5.28001 17.8266 6.80001 16.3066 8.73334 16.3066C10.6667 16.3066 12.1867 17.8266 12.1867 19.7599V23.5066C12.1867 26.6266 9.54667 29.2666 6.42667 29.2666Z" fill="#D1193F"/>
</svg>
