<svg width="57" height="35" viewBox="0 0 57 35" fill="none" xmlns="http://www.w3.org/2000/svg">
<path d="M26.0905 16.8665H25.9405V17.0165V20.1364V20.2864H26.0905H30.3188H30.4688V20.1364V17.0165V16.8665H30.3188H26.0905ZM31.3762 22.1013H25.0331C24.5319 22.1013 24.1256 21.6951 24.1256 21.1939V15.959C24.1256 15.4579 24.532 15.0516 25.0331 15.0516H31.3762C31.8774 15.0516 32.2837 15.4579 32.2837 15.959V21.1939C32.2837 21.695 31.8774 22.1013 31.3762 22.1013Z" fill="#646D84" stroke="white" stroke-width="0.3"/>
<path d="M36.6634 16.8665H36.5134V17.0165V20.1364V20.2864H36.6634H49.3307H49.4807V20.1364V17.0165V16.8665H49.3307H36.6634ZM50.3881 22.1013H35.606C35.1048 22.1013 34.6985 21.6951 34.6985 21.1939V15.959C34.6985 15.4579 35.1048 15.0516 35.606 15.0516H50.3881C50.8892 15.0516 51.2955 15.4579 51.2955 15.959V21.1939C51.2955 21.695 50.8892 22.1013 50.3881 22.1013Z" fill="#646D84" stroke="white" stroke-width="0.3"/>
<path d="M26.0905 26.3494H25.9405V26.4994V29.6193V29.7694H26.0905H30.3188H30.4688V29.6193V26.4994V26.3494H30.3188H26.0905ZM31.3762 31.5842H25.0331C24.532 31.5842 24.1256 31.1779 24.1256 30.6768V25.442C24.1256 24.9408 24.532 24.5345 25.0331 24.5345H31.3762C31.8774 24.5345 32.2837 24.9408 32.2837 25.442V30.6768C32.2837 31.1779 31.8774 31.5842 31.3762 31.5842Z" fill="#646D84" stroke="white" stroke-width="0.3"/>
<path d="M36.6634 26.3494H36.5134V26.4994V29.6193V29.7694H36.6634H49.3307H49.4807V29.6193V26.4994V26.3494H49.3307H36.6634ZM50.3881 31.5842H35.606C35.1048 31.5842 34.6985 31.1779 34.6985 30.6768V25.442C34.6985 24.9408 35.1048 24.5345 35.606 24.5345H50.3881C50.8892 24.5345 51.2955 24.9408 51.2955 25.442V30.6768C51.2955 31.1779 50.8892 31.5842 50.3881 31.5842Z" fill="#646D84" stroke="white" stroke-width="0.3"/>
<path d="M55.4811 33.8391V33.986L55.6281 33.9891C56.1206 33.9992 56.5166 34.4008 56.5166 34.8955C56.5166 35.3966 56.1103 35.8029 55.6092 35.8029H1.72406C1.22293 35.8029 0.816626 35.3966 0.816626 34.8955C0.816626 34.4009 1.21267 33.9993 1.7051 33.9891L1.85199 33.986V33.8391V1.05743C1.85199 0.556309 2.2583 0.15 2.75942 0.15H20.7909C21.292 0.15 21.6984 0.556309 21.6984 1.05743V10.6404V10.7904H21.8484H54.5737C55.0748 10.7904 55.4811 11.1967 55.4811 11.6979V33.8391ZM53.6663 12.7553V12.6053H53.5163H21.8484H21.6984V12.7553V33.8379V33.9879H21.8484H53.5163H53.6663V33.8379V12.7553ZM19.8835 2.11487V1.96487H19.7335H3.81685H3.66685V2.11487V4.26278V4.41278H3.81685H16.6163C17.1174 4.41278 17.5237 4.81909 17.5237 5.32022C17.5237 5.82134 17.1174 6.22765 16.6163 6.22765H3.81685H3.66685V6.37765V8.48882V8.63882H3.81685H16.6163C17.1174 8.63882 17.5237 9.04513 17.5237 9.54625C17.5237 10.0474 17.1174 10.4537 16.6163 10.4537H3.81685H3.66685V10.6037V12.7149V12.8649H3.81685H16.6163C17.1174 12.8649 17.5237 13.2712 17.5237 13.7723C17.5237 14.2734 17.1174 14.6797 16.6163 14.6797H3.81685H3.66685V14.8297V16.941V17.091H3.81685H16.6163C17.1174 17.091 17.5237 17.4973 17.5237 17.9985C17.5237 18.4996 17.1174 18.9059 16.6163 18.9059H3.81685H3.66685V19.0559V21.1671V21.3171H3.81685H16.6163C17.1174 21.3171 17.5237 21.7234 17.5237 22.2245C17.5237 22.7256 17.1174 23.1319 16.6163 23.1319H3.81685H3.66685V23.2819V25.3931V25.5431H3.81685H16.6163C17.1174 25.5431 17.5237 25.9494 17.5237 26.4505C17.5237 26.9517 17.1174 27.358 16.6163 27.358H3.81685H3.66685V27.508V29.6191V29.7691H3.81685H16.6163C17.1174 29.7691 17.5237 30.1754 17.5237 30.6766C17.5237 31.1777 17.1174 31.584 16.6163 31.584H3.81685H3.66685V31.734V33.8379V33.9879H3.81685H19.7335H19.8835V33.8379V11.6979V2.11487Z" fill="#646D84" stroke="white" stroke-width="0.3"/>
</svg>
