<svg width="22" height="24" viewBox="0 0 22 24" fill="none" xmlns="http://www.w3.org/2000/svg">
<path d="M17.1334 3.76C17.1334 3.76 17.8134 4.42667 17.1334 3.76C16.2219 2.7195 15.7196 1.38324 15.72 0H11.6V16.5333C11.5682 17.428 11.1905 18.2755 10.5464 18.8973C9.90224 19.519 9.04196 19.8665 8.14669 19.8667C6.25336 19.8667 4.68003 18.32 4.68003 16.4C4.68003 14.1067 6.89336 12.3867 9.17336 13.0933V8.88C4.57336 8.26667 0.546692 11.84 0.546692 16.4C0.546692 20.84 4.22669 24 8.13336 24C12.32 24 15.72 20.6 15.72 16.4V8.01333C17.3907 9.21313 19.3965 9.85686 21.4534 9.85333V5.73333C21.4534 5.73333 18.9467 5.85333 17.1334 3.76Z" fill="black"/>
</svg>
