<svg width="28" height="28" viewBox="0 0 28 28" fill="none" xmlns="http://www.w3.org/2000/svg">
<path d="M27.3334 19.5866C27.3334 24.44 24.44 27.3333 19.5867 27.3333H18C17.2667 27.3333 16.6667 26.7333 16.6667 26V18.3066C16.6667 17.9466 16.96 17.64 17.32 17.64L19.6667 17.6C19.8534 17.5866 20.0134 17.4533 20.0534 17.2666L20.52 14.72C20.56 14.48 20.3734 14.2533 20.12 14.2533L17.28 14.2933C16.9067 14.2933 16.6134 14 16.6 13.64L16.5467 10.3733C16.5467 10.16 16.72 9.97331 16.9467 9.97331L20.1467 9.91996C20.3733 9.91996 20.5467 9.74665 20.5467 9.51998L20.4933 6.31995C20.4933 6.09328 20.32 5.91996 20.0934 5.91996L16.4933 5.97331C14.28 6.01331 12.52 7.82662 12.56 10.04L12.6267 13.7066C12.64 14.08 12.3467 14.3733 11.9734 14.3866L10.3734 14.4133C10.1467 14.4133 9.97337 14.5866 9.97337 14.8133L10.0134 17.3466C10.0134 17.5733 10.1867 17.7466 10.4134 17.7466L12.0134 17.72C12.3867 17.72 12.68 18.0133 12.6933 18.3733L12.8133 25.9733C12.8267 26.72 12.2267 27.3333 11.48 27.3333H8.41335C3.56002 27.3333 0.666687 24.44 0.666687 19.5733V8.41329C0.666687 3.55996 3.56002 0.666626 8.41335 0.666626H19.5867C24.44 0.666626 27.3334 3.55996 27.3334 8.41329V19.5866Z" fill="#0E8DF2"/>
</svg>
