<svg width="28" height="27" viewBox="0 0 28 27" fill="none" xmlns="http://www.w3.org/2000/svg">
<path d="M2.9043 4.43714C2.9043 2.02089 4.86305 0.0621338 7.2793 0.0621338H23.625C26.0413 0.0621338 28 2.02089 28 4.43714V19.4744C28 21.8907 26.0412 23.8494 23.625 23.8494H7.2793C4.86305 23.8494 2.9043 21.8907 2.9043 19.4744V4.43714Z" fill="white"/>
<path d="M6.88503 26.5878C7.42191 26.5821 7.95857 26.5764 8.49461 26.5764C8.61683 26.5764 8.73905 26.5825 8.86128 26.5947H17.692C18.4253 26.5947 19.1587 26.5961 19.892 26.5975C21.3587 26.6002 22.8254 26.6029 24.2921 26.5947H24.3227C26.3638 26.5764 28.0016 24.9176 27.9894 22.8805V19.3127C27.9894 19.2885 27.9916 19.2643 27.9937 19.2403C27.9996 19.1733 28.0054 19.1072 27.965 19.0444C27.8814 19.049 27.8366 19.1029 27.7931 19.1553C27.7794 19.1719 27.7658 19.1883 27.7511 19.2029C26.5655 20.3922 25.166 21.3436 23.6321 22.0206C19.8676 23.6673 16.042 23.7893 12.1674 22.4597C11.8313 22.3377 11.4647 22.3194 11.1163 22.4109C10.603 22.539 10.0958 22.6914 9.58867 22.8439L9.58851 22.8439C8.09126 23.3014 6.56957 23.5087 5.0112 23.2038C5.03565 23.2587 5.0662 23.3075 5.10287 23.3563C5.51802 23.7237 5.92038 24.1061 6.32254 24.4883C6.60118 24.7531 6.87972 25.0178 7.16235 25.2774C7.48625 25.5762 7.81014 25.8812 8.12182 26.1983C8.14854 26.225 8.17898 26.2477 8.2107 26.2689C8.17898 26.2492 8.14855 26.2285 8.12182 26.2044C7.81015 25.8934 7.48625 25.5823 7.16236 25.2835C6.87972 25.0239 6.60118 24.7592 6.32254 24.4944C5.92038 24.1122 5.51803 23.7298 5.10287 23.3623C5.06621 23.3136 5.03565 23.2648 5.01121 23.2099C4.9012 23.1611 4.82176 23.1062 4.95009 22.9964C4.97862 22.9781 5.00714 22.9591 5.03566 22.9402C5.0927 22.9022 5.14973 22.8643 5.20677 22.8317C6.00734 22.3133 6.75902 21.7462 7.25403 20.9106C7.66348 20.2153 7.59625 19.8128 7.08291 19.2944C4.1923 16.4036 2.91506 12.9394 3.55062 8.85928C3.91119 6.54781 4.97454 4.55959 6.50846 2.82751C7.43736 1.77851 8.5435 0.930768 9.75352 0.223301C9.77098 0.21221 9.79133 0.203177 9.81211 0.193956C9.8713 0.167685 9.93392 0.139891 9.94297 0.0586319C9.928 0.00884299 9.89267 0.0118937 9.86025 0.0146932C9.85295 0.0153229 9.84581 0.0159399 9.83908 0.0159399C9.2121 0.0159399 8.58513 0.0119833 7.95833 0.00802772C6.52621 -0.00100995 5.095 -0.0100419 3.66674 0.0281376C1.70503 0.0830273 0 1.60164 0 3.77893C0.00814874 8.02396 0.00543191 12.2663 0.00271567 16.5077C0.00135776 18.6281 0 20.7482 0 22.8683C0 24.8383 1.50947 26.4911 3.4834 26.5703C4.61573 26.6117 5.75088 26.5998 6.88503 26.5878Z" fill="#0180C7"/>
<path d="M9.448 12.9274C10.3708 12.9274 11.2386 12.9213 12.1003 12.9274C12.5831 12.9335 12.8458 13.1348 12.8947 13.519C12.9497 14.0008 12.6686 14.3241 12.143 14.3302C11.153 14.3424 10.1691 14.3363 9.1791 14.3363C8.89187 14.3363 8.61076 14.3485 8.32353 14.3302C7.96908 14.3119 7.62074 14.2387 7.44962 13.8727C7.27851 13.5068 7.40073 13.1775 7.63296 12.8786C8.57409 11.6833 9.52133 10.4818 10.4686 9.28641C10.5236 9.21322 10.5786 9.14004 10.6336 9.07295C10.5725 8.96927 10.4869 9.01806 10.4136 9.01196C9.75356 9.00586 9.08743 9.01196 8.42742 9.00586C8.27464 9.00586 8.12186 8.98757 7.97519 8.95707C7.62685 8.87779 7.41296 8.53015 7.4924 8.18862C7.5474 7.95686 7.73074 7.7678 7.96297 7.71291C8.10964 7.67631 8.26242 7.65802 8.4152 7.65802C9.503 7.65192 10.5969 7.65192 11.6847 7.65802C11.8803 7.65192 12.0697 7.67631 12.2592 7.7251C12.6747 7.86538 12.8519 8.24961 12.6869 8.65213C12.5403 8.99976 12.308 9.29861 12.0758 9.59745C11.2753 10.616 10.4747 11.6284 9.67411 12.6347C9.60689 12.714 9.54578 12.7933 9.448 12.9274Z" fill="#0180C7"/>
<path d="M16.537 9.7193C16.6836 9.53023 16.8364 9.35336 17.087 9.30457C17.5698 9.20699 18.022 9.51803 18.0281 10.0059C18.0464 11.2257 18.0403 12.4455 18.0281 13.6653C18.0281 13.9824 17.8203 14.2629 17.5209 14.3544C17.2153 14.4703 16.867 14.3788 16.6653 14.1166C16.5614 13.9885 16.5186 13.9641 16.372 14.08C15.8158 14.5313 15.1864 14.6106 14.508 14.391C13.4202 14.0373 12.9741 13.1895 12.8519 12.1588C12.7236 11.0427 13.0964 10.0913 14.0986 9.50584C14.9297 9.01183 15.7731 9.05452 16.537 9.7193ZM14.3736 11.9454C14.3858 12.2137 14.4714 12.4699 14.6303 12.6833C14.9603 13.1225 15.5897 13.2139 16.0359 12.8846C16.1092 12.8297 16.1764 12.7626 16.2375 12.6833C16.5798 12.2198 16.5798 11.4575 16.2375 10.994C16.0664 10.7561 15.7975 10.6158 15.5103 10.6097C14.8381 10.567 14.3675 11.0854 14.3736 11.9454ZM20.7721 11.982C20.7232 10.4146 21.756 9.24358 23.2227 9.20089C24.781 9.1521 25.9177 10.195 25.9666 11.7197C26.0155 13.2627 25.0682 14.3544 23.6077 14.5008C22.0126 14.6594 20.7476 13.5067 20.7721 11.982ZM22.306 11.8356C22.2937 12.1405 22.3854 12.4394 22.5688 12.6894C22.9049 13.1286 23.5343 13.2139 23.9743 12.8724C24.0416 12.8236 24.0966 12.7626 24.1516 12.7016C24.506 12.2381 24.506 11.4575 24.1577 10.994C23.9866 10.7622 23.7177 10.6158 23.4304 10.6097C22.7704 10.5731 22.306 11.0732 22.306 11.8356ZM20.2343 10.7683C20.2343 11.7136 20.2404 12.6589 20.2343 13.6043C20.2404 14.0373 19.8981 14.3971 19.4642 14.4093C19.3909 14.4093 19.3115 14.4032 19.2381 14.3849C18.9326 14.3056 18.7003 13.9824 18.7003 13.5982V8.74958C18.7003 8.46293 18.6942 8.18238 18.7003 7.89574C18.7065 7.42613 19.0059 7.12118 19.4581 7.12118C19.9226 7.11508 20.2343 7.42003 20.2343 7.90794C20.2404 8.85936 20.2343 9.81688 20.2343 10.7683Z" fill="#0180C7"/>
</svg>
