<svg width="32" height="32" viewBox="0 0 32 32" fill="none" xmlns="http://www.w3.org/2000/svg">
<path d="M10.6667 29.7599C10.2934 29.7599 9.90666 29.6666 9.56 29.4799C8.8 29.0799 8.33335 28.2799 8.33335 27.4266V25.5333C4.30669 25.12 1.66669 22.1599 1.66669 17.9199V9.91996C1.66669 5.3333 4.74669 2.2533 9.33335 2.2533H22.6667C27.2534 2.2533 30.3334 5.3333 30.3334 9.91996V17.9199C30.3334 22.5065 27.2534 25.5865 22.6667 25.5865H17.64L11.96 29.3733C11.5733 29.6267 11.12 29.7599 10.6667 29.7599ZM9.33335 4.23995C5.89335 4.23995 3.66669 6.46662 3.66669 9.90662V17.9067C3.66669 21.3467 5.89335 23.5734 9.33335 23.5734C9.88002 23.5734 10.3334 24.0267 10.3334 24.5734V27.4134C10.3334 27.5867 10.44 27.6667 10.5067 27.7067C10.5734 27.7467 10.7067 27.7867 10.8534 27.6933L16.7867 23.7467C16.9467 23.64 17.1467 23.5734 17.3467 23.5734H22.68C26.12 23.5734 28.3467 21.3467 28.3467 17.9067V9.90662C28.3467 6.46662 26.12 4.23995 22.68 4.23995H9.33335Z" fill="#D1193F"/>
<path d="M15.9997 16.1466C15.4531 16.1466 14.9997 15.6933 14.9997 15.1466V14.8667C14.9997 13.32 16.133 12.56 16.5597 12.2666C17.053 11.9333 17.213 11.7067 17.213 11.36C17.213 10.6933 16.6664 10.1466 15.9997 10.1466C15.3331 10.1466 14.7864 10.6933 14.7864 11.36C14.7864 11.9067 14.3331 12.36 13.7864 12.36C13.2398 12.36 12.7864 11.9067 12.7864 11.36C12.7864 9.58665 14.2264 8.14661 15.9997 8.14661C17.7731 8.14661 19.213 9.58665 19.213 11.36C19.213 12.88 18.0931 13.64 17.6797 13.92C17.1597 14.2666 16.9997 14.4933 16.9997 14.8667V15.1466C16.9997 15.7066 16.5464 16.1466 15.9997 16.1466Z" fill="#D1193F"/>
<path d="M16 19.4667C15.44 19.4667 15 19.0133 15 18.4667C15 17.92 15.4533 17.4667 16 17.4667C16.5467 17.4667 17 17.92 17 18.4667C17 19.0133 16.56 19.4667 16 19.4667Z" fill="#D1193F"/>
</svg>
