<svg width="56" height="44" viewBox="0 0 56 44" fill="none" xmlns="http://www.w3.org/2000/svg">
<path d="M17.4351 31.7907V31.9288L17.5727 31.9402C18.0287 31.9779 18.3868 32.3593 18.3868 32.8246C18.3868 33.3152 17.9891 33.7129 17.4986 33.7129H16.5469H9.33333H8.20853C7.718 33.7129 7.32029 33.3152 7.32029 32.8246C7.32029 32.3341 7.718 31.9364 8.20853 31.9364H8.29509H8.44509V31.7864V22.453C8.44509 21.9625 8.8428 21.5648 9.33333 21.5648H16.5469C17.0374 21.5648 17.4351 21.9625 17.4351 22.453V31.7907ZM15.6586 23.4913V23.3413H15.5086H10.3716H10.2216V23.4913V26.6005V26.7505H10.3716H15.5086H15.6586V26.6005V23.4913ZM10.3716 28.527H10.2216V28.677V31.7864V31.9364H10.3716H15.5086H15.6586V31.7864V28.677V28.527H15.5086H10.3716Z" fill="#646D84" stroke="white" stroke-width="0.3"/>
<path d="M24.2904 33.4524L24.2904 33.4524L24.2897 33.4517C24.1247 33.2878 24.029 33.0575 24.029 32.8249C24.029 32.5911 24.1246 32.3618 24.2901 32.1964C24.4553 32.0312 24.6844 31.9366 24.9173 31.9366C25.1515 31.9366 25.3806 32.0313 25.5458 32.1964C25.7109 32.3615 25.8055 32.5906 25.8055 32.8249C25.8055 33.0577 25.7109 33.2869 25.5458 33.452C25.3803 33.6175 25.151 33.7131 24.9173 33.7131C24.6846 33.7131 24.4543 33.6174 24.2904 33.4524Z" fill="#646D84" stroke="white" stroke-width="0.3"/>
<path d="M47.6036 31.7907V31.9288L47.7412 31.9402C48.197 31.9779 48.5553 32.3594 48.5553 32.8246C48.5553 33.3152 48.1575 33.7129 47.667 33.7129H46.7153H39.5018H38.377C37.8865 33.7129 37.4887 33.3152 37.4887 32.8246C37.4887 32.3341 37.8865 31.9364 38.377 31.9364H38.4635H38.6135V31.7864V22.453C38.6135 21.9625 39.0113 21.5648 39.5018 21.5648H46.7153C47.2059 21.5648 47.6036 21.9625 47.6036 22.453V31.7907ZM45.8271 23.4913V23.3413H45.6771H40.54H40.39V23.4913V26.6005V26.7505H40.54H45.6771H45.8271V26.6005V23.4913ZM40.54 28.527H40.39V28.677V31.7864V31.9364H40.54H45.6771H45.8271V31.7864V28.677V28.527H45.6771H40.54Z" fill="#646D84" stroke="white" stroke-width="0.3"/>
<path d="M53.8492 42.2444V42.3944H53.9992H54.9618C55.4523 42.3944 55.85 42.7921 55.85 43.2826C55.85 43.7731 55.4523 44.1708 54.9618 44.1708H1.03824C0.547714 44.1708 0.15 43.7731 0.15 43.2826C0.15 42.7921 0.547714 42.3944 1.03824 42.3944H2.00069H2.15069V42.2444V20.0169V19.7738L1.93342 19.8828L1.4365 20.1321L1.43644 20.1321C1.31089 20.1952 1.17436 20.2265 1.03824 20.2265C0.876021 20.2265 0.714391 20.1821 0.571781 20.0941C0.309651 19.9323 0.15 19.6462 0.15 19.3382V15.1678C0.15 14.8319 0.339627 14.5247 0.639864 14.374L27.6016 0.844478L27.6016 0.844468C27.8524 0.71857 28.1479 0.718673 28.3986 0.844585L28.4659 0.710623L28.3986 0.844586L42.5221 7.93744L42.7395 8.04658V7.8034V4.84611C42.7395 4.35558 43.1372 3.95787 43.6277 3.95787H49.803C50.2935 3.95787 50.6912 4.35558 50.6912 4.84611V11.9474V12.0399L50.7739 12.0814L55.3387 14.374C55.6388 14.5248 55.8283 14.8319 55.8283 15.1678V19.3382C55.8283 19.6465 55.6687 19.9325 55.4064 20.0942L55.4852 20.2219L55.4064 20.0943C55.1443 20.256 54.817 20.2703 54.5415 20.132L54.0665 19.8934L53.8492 19.7843V20.0275V42.2444ZM22.8305 23.3412H22.6805V23.4912V42.2444V42.3944H22.8305H33.148H33.298V42.2444V23.4912V23.3412H33.148H22.8305ZM35.2245 37.8441H35.0745V37.9941V42.2444V42.3944H35.2245H51.9228H52.0728V42.2444V37.9941V37.8441H51.9228H35.2245ZM44.6659 5.73434H44.5159V5.88434V8.78285C44.5159 8.79286 44.5153 8.80115 44.5144 8.81404C44.514 8.81992 44.5135 8.82676 44.513 8.83515L44.5067 8.93415L44.5954 8.97867L48.6975 11.0388L48.9148 11.1479V10.9047V5.88434V5.73434H48.7648H44.6659ZM2.0092 15.6744L1.92648 15.7159V15.8085V17.6556V17.8987L2.14375 17.7897L27.6016 5.01482L27.6016 5.01481C27.8524 4.88892 28.1479 4.88902 28.3986 5.01493L53.8345 17.789L54.0518 17.8982V17.655V15.8082V15.7157L53.9692 15.6742L28.0672 2.66595L27.9999 2.63216L27.9326 2.66593L2.0092 15.6744ZM28.0672 6.8363L27.9999 6.8025L27.9326 6.83627L3.99756 18.8471L3.9006 18.8958L3.91644 19.0031C3.92317 19.0486 3.92729 19.0917 3.92729 19.1342V35.9176V36.0676H4.07729H20.754H20.904V35.9176V22.4529C20.904 21.9624 21.3017 21.5647 21.7922 21.5647H34.1862C34.6767 21.5647 35.0745 21.9624 35.0745 22.4529V35.9176V36.0676H35.2245H51.9227H52.0727V35.9176V19.1341C52.0727 19.0945 52.0765 19.0541 52.0825 19.0108L52.0971 18.9044L52.0012 18.8562L28.0672 6.8363ZM4.07729 37.8441H3.92729V37.9941V42.2444V42.3944H4.07729H20.754H20.904V42.2444V37.9941V37.8441H20.754H4.07729Z" fill="#646D84" stroke="white" stroke-width="0.3"/>
</svg>
