<svg width="57" height="54" viewBox="0 0 57 54" fill="none" xmlns="http://www.w3.org/2000/svg">
<mask id="path-1-inside-1_1955_2753" fill="white">
<path d="M55.5884 52.4872H52.3649V24.3172C54.2343 23.8451 55.6221 22.1496 55.6221 20.1355V18.0324C55.6229 18.0146 55.6248 17.997 55.6248 17.979C55.6248 17.7478 55.552 17.5336 55.4282 17.358L52.3651 12.3303V5.11589C52.3651 4.52044 51.8823 4.03767 51.2869 4.03767H47.939C47.46 2.17815 45.7688 0.800049 43.7617 0.800049H13.6278C11.622 0.800049 9.93163 2.17626 9.45142 4.03767H6.04653C5.45109 4.03767 4.96832 4.52044 4.96832 5.11589V12.3303L1.86857 17.4181C1.80361 17.5248 1.76088 17.6405 1.73622 17.7591C1.73487 17.7656 1.73325 17.772 1.73204 17.7785C1.72705 17.8048 1.72301 17.8312 1.71991 17.8577C1.71735 17.8788 1.71587 17.9001 1.71465 17.9215C1.71371 17.9386 1.71223 17.9557 1.71209 17.9728C1.71196 17.9781 1.71129 17.9832 1.71129 17.9885V20.1356C1.71129 22.1496 3.09909 23.8451 4.96845 24.3174V52.4872H1.74485C1.1494 52.4872 0.666626 52.9699 0.666626 53.5654C0.666626 54.1608 1.1494 54.6436 1.74485 54.6436H33.9566H46.9963H55.5884C56.1839 54.6436 56.6666 54.1608 56.6666 53.5654C56.6666 52.9699 56.1839 52.4872 55.5884 52.4872ZM53.4657 20.1355C53.4657 21.3245 52.4982 22.2919 51.3092 22.2919C50.1202 22.2919 49.1528 21.3245 49.1528 20.1355V19.0666H53.4657V20.1355ZM46.9963 20.1355C46.9963 21.3245 46.0289 22.2919 44.8399 22.2919C43.6509 22.2919 42.6835 21.3245 42.6835 20.1355V19.0666H46.9963V20.1355ZM40.527 20.1355C40.527 21.3245 39.5596 22.2919 38.3706 22.2919C37.1816 22.2919 36.2142 21.3245 36.2142 20.1355V19.0666H40.527V20.1355ZM34.0577 20.1355C34.0577 21.3245 33.0903 22.2919 31.9013 22.2919C30.7123 22.2919 29.7448 21.3245 29.7448 20.1355V19.0666H34.0577V20.1355ZM27.5884 20.1355C27.5884 21.3245 26.621 22.2919 25.432 22.2919C24.243 22.2919 23.2755 21.3245 23.2755 20.1355V19.0666H27.5884V20.1355ZM21.1191 20.1355C21.1191 21.3245 20.1517 22.2919 18.9627 22.2919C17.7736 22.2919 16.8062 21.3245 16.8062 20.1355V19.0666H21.1191V20.1355ZM14.6498 20.1355C14.6498 21.3245 13.6823 22.2919 12.4933 22.2919C11.3043 22.2919 10.3369 21.3245 10.3369 20.1355V19.0666H14.6498V20.1355ZM15.7481 13.7112L14.9172 16.901H10.9786L12.4997 13.7112H15.7481ZM44.9227 13.7112L46.4438 16.901H42.5052L41.6743 13.7112H44.9227ZM39.446 13.7112L40.2769 16.901H36.1925L35.9554 13.7112H39.446ZM33.793 13.7112L34.0301 16.901H29.7899V13.7112H33.793ZM27.6333 16.9008H23.3922L23.6293 13.711H27.6333V16.9008ZM21.23 16.9008H17.1456L17.9765 13.711H21.467L21.23 16.9008ZM48.8328 16.9008L47.3117 13.711H50.6812L52.6244 16.9008H48.8328ZM13.6278 2.95649H43.7617C44.9508 2.95649 45.9181 3.92392 45.9181 5.11899C45.9181 6.308 44.9507 7.27543 43.7617 7.27543H13.6278C12.4388 7.27543 11.4713 6.308 11.4713 5.11293C11.4713 3.92392 12.4386 2.95649 13.6278 2.95649ZM9.45047 6.19411C9.92934 8.05377 11.6207 9.43187 13.6276 9.43187H43.7617C45.7675 9.43187 47.4578 8.05565 47.938 6.19411H50.2086V11.5546H7.12475V6.19411H9.45047ZM6.65209 13.7112H10.1107L8.58965 16.901H4.70887L6.65209 13.7112ZM3.86759 20.1355V19.0666H8.18047V20.1355C8.18047 21.3245 7.21303 22.2919 6.02403 22.2919C4.83502 22.2919 3.86759 21.3246 3.86759 20.1355ZM7.12475 24.3055C7.96307 24.0841 8.70151 23.6157 9.25868 22.9836C10.0496 23.8808 11.2061 24.4484 12.4933 24.4484C13.7806 24.4484 14.9371 23.8808 15.728 22.9836C16.5189 23.8808 17.6754 24.4484 18.9627 24.4484C20.2499 24.4484 21.4064 23.8808 22.1973 22.9836C22.9882 23.8808 24.1447 24.4484 25.432 24.4484C26.7192 24.4484 27.8758 23.8808 28.6666 22.9836C29.4575 23.8808 30.614 24.4484 31.9013 24.4484C33.1885 24.4484 34.3451 23.8808 35.1359 22.9836C35.9268 23.8808 37.0833 24.4484 38.3706 24.4484C39.6579 24.4484 40.8144 23.8808 41.6053 22.9836C42.3961 23.8808 43.5527 24.4484 44.8399 24.4484C46.1272 24.4484 47.2837 23.8808 48.0746 22.9836C48.6317 23.6157 49.3703 24.0841 50.2085 24.3055V52.4872H48.0746V28.8169C48.0746 28.2215 47.5918 27.7387 46.9963 27.7387H33.9566C33.3612 27.7387 32.8784 28.2215 32.8784 28.8169V52.4872H7.12475V24.3055ZM35.0349 52.4872V29.8951H45.9181V52.4872H35.0349Z"/>
</mask>
<path d="M55.5884 52.4872H52.3649V24.3172C54.2343 23.8451 55.6221 22.1496 55.6221 20.1355V18.0324C55.6229 18.0146 55.6248 17.997 55.6248 17.979C55.6248 17.7478 55.552 17.5336 55.4282 17.358L52.3651 12.3303V5.11589C52.3651 4.52044 51.8823 4.03767 51.2869 4.03767H47.939C47.46 2.17815 45.7688 0.800049 43.7617 0.800049H13.6278C11.622 0.800049 9.93163 2.17626 9.45142 4.03767H6.04653C5.45109 4.03767 4.96832 4.52044 4.96832 5.11589V12.3303L1.86857 17.4181C1.80361 17.5248 1.76088 17.6405 1.73622 17.7591C1.73487 17.7656 1.73325 17.772 1.73204 17.7785C1.72705 17.8048 1.72301 17.8312 1.71991 17.8577C1.71735 17.8788 1.71587 17.9001 1.71465 17.9215C1.71371 17.9386 1.71223 17.9557 1.71209 17.9728C1.71196 17.9781 1.71129 17.9832 1.71129 17.9885V20.1356C1.71129 22.1496 3.09909 23.8451 4.96845 24.3174V52.4872H1.74485C1.1494 52.4872 0.666626 52.9699 0.666626 53.5654C0.666626 54.1608 1.1494 54.6436 1.74485 54.6436H33.9566H46.9963H55.5884C56.1839 54.6436 56.6666 54.1608 56.6666 53.5654C56.6666 52.9699 56.1839 52.4872 55.5884 52.4872ZM53.4657 20.1355C53.4657 21.3245 52.4982 22.2919 51.3092 22.2919C50.1202 22.2919 49.1528 21.3245 49.1528 20.1355V19.0666H53.4657V20.1355ZM46.9963 20.1355C46.9963 21.3245 46.0289 22.2919 44.8399 22.2919C43.6509 22.2919 42.6835 21.3245 42.6835 20.1355V19.0666H46.9963V20.1355ZM40.527 20.1355C40.527 21.3245 39.5596 22.2919 38.3706 22.2919C37.1816 22.2919 36.2142 21.3245 36.2142 20.1355V19.0666H40.527V20.1355ZM34.0577 20.1355C34.0577 21.3245 33.0903 22.2919 31.9013 22.2919C30.7123 22.2919 29.7448 21.3245 29.7448 20.1355V19.0666H34.0577V20.1355ZM27.5884 20.1355C27.5884 21.3245 26.621 22.2919 25.432 22.2919C24.243 22.2919 23.2755 21.3245 23.2755 20.1355V19.0666H27.5884V20.1355ZM21.1191 20.1355C21.1191 21.3245 20.1517 22.2919 18.9627 22.2919C17.7736 22.2919 16.8062 21.3245 16.8062 20.1355V19.0666H21.1191V20.1355ZM14.6498 20.1355C14.6498 21.3245 13.6823 22.2919 12.4933 22.2919C11.3043 22.2919 10.3369 21.3245 10.3369 20.1355V19.0666H14.6498V20.1355ZM15.7481 13.7112L14.9172 16.901H10.9786L12.4997 13.7112H15.7481ZM44.9227 13.7112L46.4438 16.901H42.5052L41.6743 13.7112H44.9227ZM39.446 13.7112L40.2769 16.901H36.1925L35.9554 13.7112H39.446ZM33.793 13.7112L34.0301 16.901H29.7899V13.7112H33.793ZM27.6333 16.9008H23.3922L23.6293 13.711H27.6333V16.9008ZM21.23 16.9008H17.1456L17.9765 13.711H21.467L21.23 16.9008ZM48.8328 16.9008L47.3117 13.711H50.6812L52.6244 16.9008H48.8328ZM13.6278 2.95649H43.7617C44.9508 2.95649 45.9181 3.92392 45.9181 5.11899C45.9181 6.308 44.9507 7.27543 43.7617 7.27543H13.6278C12.4388 7.27543 11.4713 6.308 11.4713 5.11293C11.4713 3.92392 12.4386 2.95649 13.6278 2.95649ZM9.45047 6.19411C9.92934 8.05377 11.6207 9.43187 13.6276 9.43187H43.7617C45.7675 9.43187 47.4578 8.05565 47.938 6.19411H50.2086V11.5546H7.12475V6.19411H9.45047ZM6.65209 13.7112H10.1107L8.58965 16.901H4.70887L6.65209 13.7112ZM3.86759 20.1355V19.0666H8.18047V20.1355C8.18047 21.3245 7.21303 22.2919 6.02403 22.2919C4.83502 22.2919 3.86759 21.3246 3.86759 20.1355ZM7.12475 24.3055C7.96307 24.0841 8.70151 23.6157 9.25868 22.9836C10.0496 23.8808 11.2061 24.4484 12.4933 24.4484C13.7806 24.4484 14.9371 23.8808 15.728 22.9836C16.5189 23.8808 17.6754 24.4484 18.9627 24.4484C20.2499 24.4484 21.4064 23.8808 22.1973 22.9836C22.9882 23.8808 24.1447 24.4484 25.432 24.4484C26.7192 24.4484 27.8758 23.8808 28.6666 22.9836C29.4575 23.8808 30.614 24.4484 31.9013 24.4484C33.1885 24.4484 34.3451 23.8808 35.1359 22.9836C35.9268 23.8808 37.0833 24.4484 38.3706 24.4484C39.6579 24.4484 40.8144 23.8808 41.6053 22.9836C42.3961 23.8808 43.5527 24.4484 44.8399 24.4484C46.1272 24.4484 47.2837 23.8808 48.0746 22.9836C48.6317 23.6157 49.3703 24.0841 50.2085 24.3055V52.4872H48.0746V28.8169C48.0746 28.2215 47.5918 27.7387 46.9963 27.7387H33.9566C33.3612 27.7387 32.8784 28.2215 32.8784 28.8169V52.4872H7.12475V24.3055ZM35.0349 52.4872V29.8951H45.9181V52.4872H35.0349Z" fill="#646D84" stroke="white" stroke-width="0.6" mask="url(#path-1-inside-1_1955_2753)"/>
</svg>
