<svg width="36" height="38" viewBox="0 0 36 38" fill="none" xmlns="http://www.w3.org/2000/svg">
<path d="M30.0648 34.174C29.7692 35.7682 28.3779 36.9682 26.6968 36.9682H4.14598C2.25032 36.9682 0.71991 35.4436 0.71991 33.5479V4.45228C0.71991 2.64359 2.11119 1.17114 3.8793 1.03778C3.83875 1.24071 3.82134 1.45519 3.82134 1.66969V30.7595C3.82134 32.6552 5.35178 34.1856 7.24745 34.1856H29.7923C29.8852 34.1856 29.9721 34.1798 30.0648 34.174Z" fill="#ECEDF1"/>
<path d="M30.1221 25.2959C29.8017 25.2959 29.5424 25.5551 29.5424 25.8756V33.546C29.5424 35.1147 28.2658 36.3913 26.697 36.3913H4.14721C2.57848 36.3913 1.30188 35.1147 1.30188 33.546V4.45403C1.30188 2.88502 2.57848 1.6087 4.14721 1.6087H26.697C28.2658 1.6087 29.5424 2.88502 29.5424 4.45403C29.5424 4.77445 29.8017 5.03374 30.1221 5.03374C30.4425 5.03374 30.7018 4.77445 30.7018 4.45403C30.7018 2.24587 28.9055 0.449276 26.697 0.449276H4.14721C1.93876 0.449276 0.142456 2.24587 0.142456 4.45403V33.546C0.142456 35.7544 1.93876 37.5507 4.14721 37.5507H26.697C28.9055 37.5507 30.7018 35.7544 30.7018 33.546V25.8756C30.7018 25.5551 30.4425 25.2959 30.1221 25.2959Z" fill="#646D84"/>
<path d="M23.7735 6.43943H5.55456C5.23414 6.43943 4.97485 6.69871 4.97485 7.01914C4.97485 7.33956 5.23414 7.59885 5.55456 7.59885H23.7735C24.094 7.59885 24.3532 7.33956 24.3532 7.01914C24.3532 6.69871 24.094 6.43943 23.7735 6.43943Z" fill="#646D84"/>
<path d="M24.3533 13.0098C24.3533 12.6894 24.094 12.4301 23.7735 12.4301H5.55456C5.23414 12.4301 4.97485 12.6894 4.97485 13.0098C4.97485 13.3303 5.23414 13.5896 5.55456 13.5896H23.7735C24.094 13.5896 24.3533 13.3303 24.3533 13.0098Z" fill="#646D84"/>
<path d="M22.9532 19C22.9532 18.6796 22.6939 18.4203 22.3735 18.4203H5.55456C5.23414 18.4203 4.97485 18.6796 4.97485 19C4.97485 19.3204 5.23414 19.5797 5.55456 19.5797H22.3735C22.6939 19.5797 22.9532 19.3204 22.9532 19Z" fill="#646D84"/>
<path d="M20.3661 24.4104H5.55462C5.2342 24.4104 4.97491 24.6697 4.97491 24.9902C4.97491 25.3106 5.2342 25.5699 5.55462 25.5699H20.3661C20.6865 25.5699 20.9458 25.3106 20.9458 24.9902C20.9458 24.6697 20.6865 24.4104 20.3661 24.4104Z" fill="#646D84"/>
<path d="M20.3661 30.4012H5.55462C5.2342 30.4012 4.97491 30.6604 4.97491 30.9809C4.97491 31.3013 5.2342 31.5606 5.55462 31.5606H20.3661C20.6865 31.5606 20.9458 31.3013 20.9458 30.9809C20.9458 30.6604 20.6865 30.4012 20.3661 30.4012Z" fill="#646D84"/>
<path d="M34.6488 10.0451C34.5904 10.0214 30.2335 8.25755 30.511 8.3699C30.4372 8.33986 30.3607 8.32628 30.2855 8.32741C30.0837 8.32978 29.9006 8.44464 29.7975 8.62643C29.7848 8.64858 29.7657 8.66493 29.7558 8.6892C29.7556 8.68956 29.7557 8.68991 29.7556 8.69026C23.9323 23.1202 23.8186 23.2864 23.803 23.4786L23.1956 30.9339C23.1752 31.1864 23.3212 31.423 23.5562 31.5181C23.7871 31.6123 24.0591 31.5472 24.2214 31.3489C29.3386 25.1108 29.0139 25.5337 29.0612 25.4164L34.9563 10.8204C34.9597 10.8129 34.9655 10.8074 34.9686 10.7997C35.0887 10.5031 34.9454 10.1651 34.6488 10.0451ZM28.2029 24.4446L25.1339 23.2014L30.6123 9.66315C30.672 9.68734 33.874 10.9866 33.6722 10.9047L28.2029 24.4446ZM24.8953 24.3554L27.5724 25.4398L24.5022 29.18L24.8953 24.3554Z" fill="#646D84"/>
<path d="M34.5482 11.8326L35.6515 9.10463C36.2341 7.66437 35.5387 6.02457 34.0985 5.44205H34.0985C32.6582 4.85953 31.0184 5.55487 30.4359 6.99514L29.3326 9.72306L34.5482 11.8326Z" fill="#D1193F"/>
</svg>
