<svg width="38" height="38" viewBox="0 0 38 38" fill="none" xmlns="http://www.w3.org/2000/svg">
<path d="M12.3846 8.54402C12.7869 6.93812 11.8112 5.31014 10.2053 4.90783C8.59935 4.50553 6.97138 5.48124 6.56907 7.08715C6.16677 8.69306 7.14248 10.321 8.74839 10.7233C10.3543 11.1256 11.9823 10.1499 12.3846 8.54402Z" fill="#D1193F"/>
<path d="M31.4419 8.54629C31.8443 6.94039 30.8685 5.31241 29.2626 4.9101C27.6567 4.5078 26.0288 5.48351 25.6264 7.08942C25.2241 8.69533 26.1999 10.3233 27.8058 10.7256C29.4117 11.1279 31.0396 10.1522 31.4419 8.54629Z" fill="#D1193F"/>
<path d="M15.3851 1.09748L15.3851 5.9194L12.6752 3.86227L12.6752 1.09748H15.3851Z" fill="#ECEDF1"/>
<path d="M34.4367 1.09748V5.9194L31.7267 3.86227V1.09748H34.4367Z" fill="#ECEDF1"/>
<path d="M7.11191 33.2667H18.8018V36.9026H7.11191V33.2667Z" fill="#ECEDF1"/>
<path d="M37.3216 7.38287C37.2631 7.33852 34.8641 5.51803 35.0163 5.63351V1.09721C35.0163 0.776783 34.757 0.517496 34.4366 0.517496H31.7266C31.4061 0.517496 31.1469 0.776783 31.1469 1.09721V2.69275L28.8739 0.965299C28.6667 0.807919 28.3791 0.807919 28.1719 0.965299C27.3086 1.62159 31.2986 -1.4118 19.7304 7.38287C19.4751 7.57648 19.4253 7.9405 19.6189 8.19526C19.8136 8.45064 20.1762 8.49979 20.4313 8.30678L21.3659 7.5974V16.6605C21.3659 16.9809 21.6252 17.2402 21.9457 17.2402H35.1057C35.4262 17.2402 35.6855 16.9809 35.6855 16.6605V7.59718L36.6207 8.30678C36.8757 8.49979 37.2384 8.45064 37.4331 8.19526C37.6267 7.93994 37.5763 7.57648 37.3216 7.38287ZM32.3063 1.67692H33.8569V4.75153C33.7984 4.70715 32.2071 3.49864 32.3063 3.57393V1.67692ZM34.526 16.0808H22.5254V6.71711L28.5229 2.15472C29.6539 3.01419 34.3386 6.57409 34.526 6.71654V16.0808Z" fill="#646D84"/>
<path d="M19.2109 32.8564C19.1058 32.7493 18.9601 32.6824 18.798 32.6824H18.2511C18.2692 31.7901 18.4028 30.8962 18.648 30.0272C18.9246 28.9371 19.3777 28.0187 19.3777 26.4641V20.9613C19.3777 19.4769 17.757 18.6489 16.5726 19.3162C16.1142 18.388 14.9808 18.0012 14.0352 18.4659C13.6527 17.501 12.5133 17.0014 11.551 17.4163V17.2402H16.0523C16.3727 17.2402 16.632 16.9809 16.632 16.6605V7.5957L17.5689 8.30678C17.824 8.4998 18.1866 8.45064 18.3813 8.19526C18.5749 7.94051 18.5251 7.57649 18.2698 7.38287C18.2104 7.3378 15.9051 5.59004 15.9645 5.63511V1.09721C15.9645 0.776783 15.7053 0.517496 15.3848 0.517496H12.6754C12.3549 0.517496 12.0957 0.776783 12.0957 1.09721V2.69456L9.82267 0.966998C9.61547 0.809618 9.32788 0.809618 9.12068 0.966998C8.64868 1.32571 11.4326 -0.790046 0.678651 7.38287C0.423329 7.57648 0.373509 7.9405 0.567126 8.19526C0.761793 8.45064 1.12447 8.49979 1.37951 8.30678L2.31702 7.59527V16.6605C2.31702 16.9809 2.5763 17.2402 2.89673 17.2402H7.78237V21.0004C7.57913 20.9234 7.364 20.8832 7.14718 20.8832C6.12023 20.8674 5.22916 21.7171 5.22916 22.7661L5.24161 27.4587C5.25595 29.8563 6.80737 30.826 7.03282 31.1351C7.44609 31.5529 7.70481 32.1043 7.76368 32.6824H7.1166C6.79883 32.6824 6.5318 32.9437 6.5318 33.2666L6.53237 36.9028C6.53237 37.2232 6.79222 37.4825 7.11208 37.4825H18.802C18.9559 37.4825 19.1031 37.4214 19.2118 37.3127C19.3205 37.204 19.3817 37.0562 19.3817 36.9028L19.3811 33.2666C19.3811 33.1063 19.316 32.9613 19.2109 32.8564ZM13.2551 1.67692H14.8051V4.75153L13.2551 3.57456V1.67692ZM3.47644 16.0808V6.71711L9.47168 2.15642L15.4726 6.71711V16.0808H11.5511V15.0929V15.0923C11.5511 14.112 10.7564 13.2117 9.6636 13.2117C8.62856 13.2117 7.78237 14.0532 7.78237 15.0923V15.0929V16.0808H3.47644V16.0808ZM6.40103 27.4536L6.38858 22.7644C6.38858 22.3665 6.71523 22.0426 7.1268 22.0426C7.4304 22.06 7.65681 22.2052 7.78124 22.4907V26.7913C7.78124 27.1117 8.04052 27.371 8.36095 27.371C8.68137 27.371 8.94066 27.1117 8.94066 26.7913C8.94085 25.0588 8.94039 29.8309 8.94179 15.0929C8.94179 14.6949 9.26561 14.3711 9.6636 14.3711C10.0932 14.3711 10.3916 14.731 10.3916 15.0929C10.3916 15.1828 10.3916 19.309 10.3916 19.1397C10.3916 19.1455 10.3899 19.1508 10.3899 19.1565V21.999C10.3899 22.1597 10.4553 22.3048 10.5607 22.4097C10.6656 22.5151 10.8107 22.5804 10.9713 22.5804C11.2918 22.5804 11.5511 22.3212 11.5511 22.0007V19.1582C11.5511 19.1581 11.551 19.158 11.551 19.1579C11.551 19.1578 11.5511 19.1578 11.5511 19.1577C11.551 19.1529 11.5512 19.1518 11.5512 19.1475C11.5558 18.7935 11.8491 18.4354 12.2695 18.4324C12.2755 18.4324 12.2831 18.4341 12.2892 18.4343C12.6979 18.4429 13.0003 18.7804 13.0003 19.1565C13.0003 19.26 13.0003 22.0634 13.0003 21.999C13.0003 22.3195 13.2596 22.5787 13.58 22.5787C13.9005 22.5787 14.1598 22.3195 14.1598 21.999V20.1489C14.1598 19.2237 15.5927 19.1747 15.609 20.154C15.609 20.2246 15.6084 22.0762 15.6085 21.9968C15.6085 22.3239 15.8787 22.5793 16.1893 22.5793C16.5158 22.5793 16.7696 22.3037 16.7696 21.999V20.9596C16.77 20.951 16.7746 20.9439 16.7747 20.9353C16.7781 20.5481 17.1019 20.2333 17.4965 20.2333C17.8842 20.2333 18.2183 20.5609 18.2183 20.9613V26.464C18.2183 27.8042 17.8215 28.5877 17.5333 29.7085C17.2588 30.6817 17.1146 31.6795 17.0958 32.6869H8.92389C8.8642 31.8058 8.48582 30.9548 7.85484 30.3176C7.59514 29.9689 6.41243 29.3055 6.40103 27.4536ZM7.69179 36.3231L7.69122 33.8463H18.2217L18.2222 36.3231H7.69179Z" fill="#646D84"/>
</svg>
