<?xml version="1.0"?><svg version="1.1" id="圖層_1" xmlns="http://www.w3.org/2000/svg" x="0" y="0" viewBox="0 0 100 100" xml:space="preserve"><path d="M90 34.613a21.48 21.48 0 0 0-.451-4.378c-2.021-9.724-10.635-17.032-20.959-17.032-4.43 0-8.545 1.346-11.96 3.65A21.505 21.505 0 0 0 50 24.019a21.505 21.505 0 0 0-6.63-7.166 21.311 21.311 0 0 0-11.96-3.65c-10.324 0-18.938 7.308-20.959 17.032A21.48 21.48 0 0 0 10 34.613c0 .328.022.651.037.975-.002.159-.012.315-.012.474C10.025 58.179 50 86.797 50 86.797s39.975-28.618 39.975-50.734c0-.159-.01-.316-.012-.474.015-.325.037-.648.037-.976z" fill="#ed1e79"/><metadata xmlns:d="https://loading.io/stock/">
<d:name>heart</d:name>
<d:tags>love,like,favorite,heart,people</d:tags>
<d:license>by</d:license>
<d:slug>a7634f</d:slug>
</metadata></svg>