<svg width="46" height="56" viewBox="0 0 46 56" fill="none" xmlns="http://www.w3.org/2000/svg">
<path d="M44.6106 53.9651V54.1047L44.7499 54.1148C45.2002 54.1472 45.5556 54.5222 45.5556 54.9807C45.5556 55.4607 45.1663 55.85 44.6862 55.85H1.98009C1.50001 55.85 1.11075 55.4607 1.11075 54.9807C1.11075 54.5006 1.50001 54.1113 1.98009 54.1113H2.13009V53.9613V2.03702V1.89176L1.98491 1.8871C1.51778 1.8721 1.14376 1.48967 1.14376 1.01934C1.14376 0.539252 1.53301 0.15 2.0131 0.15H44.6534C45.1335 0.15 45.5227 0.539252 45.5227 1.01934C45.5227 1.46843 45.182 1.83802 44.745 1.88376L44.6106 1.89783V2.03295V53.9651ZM4.0189 1.88868H3.8689V2.03868V53.9613V54.1113H4.0189H6.08409H6.23409V53.9613V41.7398C6.23409 41.2597 6.62334 40.8705 7.10343 40.8705H15.2104C15.6905 40.8705 16.0797 41.2597 16.0797 41.7398V53.9613V54.1113H16.2297H42.722H42.872V53.9613V2.03868V1.88868H42.722H4.0189ZM8.11556 48.6958L7.97277 48.7027V48.8456V53.9613V54.1113H8.12277H14.191H14.341V53.9613V42.7593V42.6093H14.191H8.12277H7.97277V42.7593V46.8131V46.956L8.11556 46.9629C8.33081 46.9732 8.53819 47.0635 8.68976 47.2149C8.85124 47.3765 8.94394 47.6008 8.94394 47.83C8.94394 48.0578 8.85129 48.2821 8.68972 48.4438C8.5382 48.5954 8.33098 48.6855 8.11556 48.6958Z" fill="#646D84" stroke="white" stroke-width="0.3"/>
<path d="M26.4868 47.9634H26.6368V47.8134V42.7591V42.6091H26.4868H24.4481H24.2981V42.7591V47.8134V47.9634H24.4481H26.4868ZM20.3708 42.6091H20.2208V42.7591V47.8134V47.9634H20.3708H22.4095H22.5595V47.8134V42.7591V42.6091H22.4095H20.3708ZM27.5062 49.7021H19.3514C18.8713 49.7021 18.4821 49.3128 18.4821 48.8327V41.7398C18.4821 41.2597 18.8713 40.8705 19.3514 40.8705H27.5062C27.9862 40.8705 28.3755 41.2597 28.3755 41.7398V48.8327C28.3755 49.3128 27.9862 49.7021 27.5062 49.7021Z" fill="#646D84" stroke="white" stroke-width="0.3"/>
<path d="M38.7507 47.9634H38.9007V47.8134V42.7591V42.6091H38.7507H36.712H36.562V42.7591V47.8134V47.9634H36.712H38.7507ZM32.6347 42.6091H32.4847V42.7591V47.8134V47.9634H32.6347H34.6734H34.8234V47.8134V42.7591V42.6091H34.6734H32.6347ZM39.7701 49.7021H31.6153C31.1353 49.7021 30.746 49.3128 30.746 48.8327V41.7398C30.746 41.2597 31.1353 40.8705 31.6153 40.8705H39.7701C40.2502 40.8705 40.6394 41.2597 40.6394 41.7398V48.8327C40.6394 49.3128 40.2502 49.7021 39.7701 49.7021Z" fill="#646D84" stroke="white" stroke-width="0.3"/>
<path d="M26.4868 35.7312H26.6368V35.5812V30.527V30.377H26.4868H24.4481H24.2981V30.527V35.5812V35.7312H24.4481H26.4868ZM20.3708 30.377H20.2208V30.527V35.5812V35.7312H20.3708H22.4095H22.5595V35.5812V30.527V30.377H22.4095H20.3708ZM27.5062 37.4699H19.3514C18.8713 37.4699 18.4821 37.0807 18.4821 36.6006V29.5076C18.4821 29.0275 18.8713 28.6383 19.3514 28.6383H27.5062C27.9862 28.6383 28.3755 29.0275 28.3755 29.5076V36.6006C28.3755 37.0807 27.9862 37.4699 27.5062 37.4699Z" fill="#646D84" stroke="white" stroke-width="0.3"/>
<path d="M14.2148 35.7312H14.3648V35.5812V30.527V30.377H14.2148H12.1762H12.0262V30.527V35.5812V35.7312H12.1762H14.2148ZM8.0988 30.377H7.9488V30.527V35.5812V35.7312H8.0988H10.1375H10.2875V35.5812V30.527V30.377H10.1375H8.0988ZM15.2342 37.4699H7.07946C6.59937 37.4699 6.21012 37.0807 6.21012 36.6006V29.5076C6.21012 29.0275 6.59937 28.6383 7.07946 28.6383H15.2342C15.7143 28.6383 16.1035 29.0275 16.1035 29.5076V36.6006C16.1035 37.0807 15.7143 37.4699 15.2342 37.4699Z" fill="#646D84" stroke="white" stroke-width="0.3"/>
<path d="M38.7507 35.7312H38.9007V35.5812V30.527V30.377H38.7507H36.712H36.562V30.527V35.5812V35.7312H36.712H38.7507ZM32.6347 30.377H32.4847V30.527V35.5812V35.7312H32.6347H34.6734H34.8234V35.5812V30.527V30.377H34.6734H32.6347ZM39.7701 37.4699H31.6153C31.1353 37.4699 30.746 37.0807 30.746 36.6006V29.5076C30.746 29.0275 31.1353 28.6383 31.6153 28.6383H39.7701C40.2502 28.6383 40.6394 29.0275 40.6394 29.5076V36.6006C40.6394 37.0807 40.2502 37.4699 39.7701 37.4699Z" fill="#646D84" stroke="white" stroke-width="0.3"/>
<path d="M26.4868 23.5418H26.6368V23.3918V18.3375V18.1875H26.4868H24.4481H24.2981V18.3375V23.3918V23.5418H24.4481H26.4868ZM20.3708 18.1876H20.2208V18.3376V23.3919V23.5419H20.3708H22.4095H22.5595V23.3919V18.3376V18.1876H22.4095H20.3708ZM27.5062 25.2805H19.3514C18.8713 25.2805 18.4821 24.8913 18.4821 24.4111V17.3182C18.4821 16.8381 18.8713 16.4488 19.3514 16.4488H27.5062C27.9862 16.4488 28.3755 16.8381 28.3755 17.3182V24.4111C28.3755 24.8912 27.9862 25.2805 27.5062 25.2805Z" fill="#646D84" stroke="white" stroke-width="0.3"/>
<path d="M14.2148 23.5418H14.3648V23.3918V18.3375V18.1875H14.2148H12.1762H12.0262V18.3375V23.3918V23.5418H12.1762H14.2148ZM8.0988 18.1876H7.9488V18.3376V23.3919V23.5419H8.0988H10.1375H10.2875V23.3919V18.3376V18.1876H10.1375H8.0988ZM15.2342 25.2805H7.07946C6.59936 25.2805 6.21012 24.8913 6.21012 24.4111V17.3182C6.21012 16.8381 6.59937 16.4488 7.07946 16.4488H15.2342C15.7143 16.4488 16.1035 16.8381 16.1035 17.3182V24.4111C16.1035 24.8912 15.7143 25.2805 15.2342 25.2805Z" fill="#646D84" stroke="white" stroke-width="0.3"/>
<path d="M38.7507 23.5418H38.9007V23.3918V18.3375V18.1875H38.7507H36.712H36.562V18.3375V23.3918V23.5418H36.712H38.7507ZM32.6347 18.1876H32.4847V18.3376V23.3919V23.5419H32.6347H34.6734H34.8234V23.3919V18.3376V18.1876H34.6734H32.6347ZM39.7701 25.2805H31.6153C31.1352 25.2805 30.746 24.8913 30.746 24.4111V17.3182C30.746 16.8381 31.1353 16.4488 31.6153 16.4488H39.7701C40.2502 16.4488 40.6394 16.8381 40.6394 17.3182V24.4111C40.6394 24.8912 40.2502 25.2805 39.7701 25.2805Z" fill="#646D84" stroke="white" stroke-width="0.3"/>
<path d="M26.4868 11.3097H26.6368V11.1597V6.10557V5.95557H26.4868H24.4481H24.2981V6.10557V11.1597V11.3097H24.4481H26.4868ZM20.3708 5.95557H20.2208V6.10557V11.1598V11.3098H20.3708H22.4095H22.5595V11.1598V6.10557V5.95557H22.4095H20.3708ZM27.5062 13.0484H19.3514C18.8713 13.0484 18.4821 12.6591 18.4821 12.1792V5.08623C18.4821 4.60615 18.8713 4.21689 19.3514 4.21689H27.5062C27.9862 4.21689 28.3755 4.60615 28.3755 5.08623V12.1791C28.3755 12.6591 27.9862 13.0484 27.5062 13.0484Z" fill="#646D84" stroke="white" stroke-width="0.3"/>
<path d="M14.2148 11.3097H14.3648V11.1597V6.10557V5.95557H14.2148H12.1762H12.0262V6.10557V11.1597V11.3097H12.1762H14.2148ZM8.0988 5.95557H7.9488V6.10557V11.1598V11.3098H8.0988H10.1375H10.2875V11.1598V6.10557V5.95557H10.1375H8.0988ZM15.2342 13.0484H7.07946C6.59936 13.0484 6.21012 12.6591 6.21012 12.1792V5.08623C6.21012 4.60615 6.59937 4.21689 7.07946 4.21689H15.2342C15.7143 4.21689 16.1035 4.60615 16.1035 5.08623V12.1791C16.1035 12.6591 15.7143 13.0484 15.2342 13.0484Z" fill="#646D84" stroke="white" stroke-width="0.3"/>
<path d="M38.7507 11.3097H38.9007V11.1597V6.10557V5.95557H38.7507H36.712H36.562V6.10557V11.1597V11.3097H36.712H38.7507ZM32.6347 5.95557H32.4847V6.10557V11.1598V11.3098H32.6347H34.6734H34.8234V11.1598V6.10557V5.95557H34.6734H32.6347ZM39.7701 13.0484H31.6153C31.1352 13.0484 30.746 12.6591 30.746 12.1792V5.08623C30.746 4.60615 31.1353 4.21689 31.6153 4.21689H39.7701C40.2502 4.21689 40.6394 4.60615 40.6394 5.08623V12.1791C40.6394 12.6591 40.2502 13.0484 39.7701 13.0484Z" fill="#646D84" stroke="white" stroke-width="0.3"/>
</svg>
