<svg width="40" height="40" viewBox="0 0 40 40" fill="none" xmlns="http://www.w3.org/2000/svg">
<path d="M18.2128 32.3368H37.9693V34.6035H18.2128V32.3368Z" fill="#ECEDF1"/>
<path d="M19.9172 26.4991C19.4012 27.015 18.8273 27.444 18.2128 27.7628C15.8651 28.9976 12.9955 28.8237 10.8042 27.2585C10.4737 27.0498 10.1665 26.7831 9.87661 26.4991C9.59256 26.2034 9.33752 25.9019 9.11716 25.5715C9.02445 25.444 8.94328 25.3164 8.86792 25.1889C11.0012 26.5222 13.6795 26.6092 15.894 25.444C16.5085 25.1252 17.0824 24.6961 17.5984 24.1802C19.581 22.1976 20.1549 19.3338 19.2853 16.8469C19.1288 16.3599 18.9085 15.8846 18.6303 15.4324C19.0882 15.7106 19.523 16.0527 19.9172 16.4469C20.7114 17.2411 21.2853 18.1744 21.6041 19.1657C22.4737 21.6527 21.8998 24.5164 19.9172 26.4991Z" fill="#ECEDF1"/>
<path d="M33.7244 10.7915C33.7244 14.0741 31.0496 16.749 27.7495 16.749C24.4494 16.749 21.7747 14.0741 21.7747 10.7915C21.7747 7.4914 24.4494 4.81665 27.7495 4.81665C31.0496 4.81665 33.7244 7.4914 33.7244 10.7915Z" fill="#D1193F"/>
<path d="M4.95301 33.8455L9.32198 29.4765L6.90041 27.0549L2.53143 31.4239C1.86273 32.0926 1.86273 33.1768 2.53143 33.8455C3.20013 34.5142 4.2843 34.5142 4.95301 33.8455Z" fill="#ECEDF1"/>
<path d="M34.2707 18.5631H31.6331C31.4599 18.5631 31.2962 18.6401 31.1859 18.7737L28.0976 22.5158L25.014 18.7743C24.9041 18.6407 24.74 18.5631 24.5667 18.5631H23.3898C23.0693 18.5631 22.8101 18.8224 22.8101 19.1428C22.8101 19.4632 23.0693 19.7225 23.3898 19.7225H24.2933L27.6498 23.7952C27.7597 23.9288 27.9239 24.0064 28.0971 24.0064C28.2703 24.0064 28.4339 23.9294 28.5443 23.7958L31.9065 19.7225H34.2707C35.9905 19.7225 37.3894 21.1214 37.3894 22.8413V34.0239H18.7928V29.6235C18.7928 29.303 18.5336 29.0437 18.2131 29.0437C17.8927 29.0437 17.6334 29.303 17.6334 29.6235V34.6036C17.6334 34.9241 17.8927 35.1833 18.2131 35.1833H37.9691C38.2896 35.1833 38.5488 34.9241 38.5488 34.6036V22.8413C38.5488 20.4823 36.6297 18.5631 34.2707 18.5631Z" fill="#646D84"/>
<path d="M20.3281 26.9083C23.3006 23.9359 23.333 19.0431 20.3281 16.0382C17.3401 13.0491 12.4681 13.0502 9.46875 16.0382C6.99196 18.5145 6.43383 22.3752 8.37528 25.5006L7.2625 26.6134C7.03477 26.4274 6.70281 26.4327 6.49037 26.6451L2.1216 31.0139C1.2277 31.9078 1.2277 33.3616 2.1216 34.2555C3.01557 35.1494 4.46923 35.1489 5.36266 34.2555L9.732 29.8861C9.84069 29.7774 9.90183 29.6302 9.90183 29.4763C9.90183 29.3419 9.84805 29.2172 9.76398 29.1142L10.8704 28.0078C13.7866 29.8077 17.7068 29.5296 20.3281 26.9083ZM10.2879 16.8585C12.8253 14.3313 16.9624 14.3119 19.5084 16.8579C21.9481 19.2977 22.1672 23.4298 19.5084 26.0886C16.8649 28.732 12.7358 28.5324 10.2896 26.0869C10.2753 26.0726 10.2656 26.0595 10.2516 26.0453C7.65006 23.2984 7.88688 19.2589 10.2879 16.8585ZM4.54291 33.4357C4.10134 33.8767 3.38292 33.8779 2.94135 33.4357C2.49977 32.9942 2.49977 32.2752 2.94135 31.8336L6.89855 27.8764L8.50039 29.4782L4.54291 33.4357ZM9.91825 27.3205L8.95202 28.2867L8.09038 27.4251L9.05717 26.4588C9.28014 26.724 9.66709 27.1087 9.91825 27.3205Z" fill="#646D84"/>
</svg>
