<svg xmlns="http://www.w3.org/2000/svg" viewBox="0 0 32 32"><title>map android app aplication phone</title><g id="map_android_app_aplication_phone" data-name="map android app aplication phone"><path d="M30.56,8.47a8,8,0,0,0-7-7,64.29,64.29,0,0,0-15.06,0,8,8,0,0,0-7,7,64.29,64.29,0,0,0,0,15.06,8,8,0,0,0,7,7,64.29,64.29,0,0,0,15.06,0,8,8,0,0,0,7-7A64.29,64.29,0,0,0,30.56,8.47ZM3.42,23.3a63.65,63.65,0,0,1,0-14.6A6,6,0,0,1,4.49,5.91L14.59,16,4.49,26.09A6,6,0,0,1,3.42,23.3ZM23.3,28.58a63.65,63.65,0,0,1-14.6,0,6,6,0,0,1-2.79-1.07L16,17.41l10.09,10.1A6,6,0,0,1,23.3,28.58Zm5.28-5.28a6,6,0,0,1-1.07,2.79L5.91,4.49A6,6,0,0,1,8.7,3.42a63.65,63.65,0,0,1,14.6,0A6,6,0,0,1,28.58,8.7,63.65,63.65,0,0,1,28.58,23.3Z"/><path d="M22,6a4,4,0,0,0-4,4c0,1.87,2.65,5.8,3.18,6.57a1,1,0,0,0,1.64,0C23.35,15.8,26,11.87,26,10A4,4,0,0,0,22,6Zm0,8.18A13.26,13.26,0,0,1,20,10a2,2,0,0,1,4,0A13.36,13.36,0,0,1,22,14.18Z"/><circle cx="22" cy="10" r="1"/></g></svg>